<svg width="446" height="150" viewBox="0 0 446 150" fill="none" xmlns="http://www.w3.org/2000/svg">
<g clip-path="url(#clip0_40_132)">
<path d="M365.976 44.6902C365.764 33.5626 364.875 20.8398 364.875 15.129C364.717 4.56756 364.401 0 378.942 0C395.697 0 399.017 8.70504 398.543 16.5554C398.069 23.4094 397.752 71.4641 398.069 86.31C398.069 91.3077 399.83 99.5445 394.116 101.483C391.744 102.196 387.475 102.767 383.211 102.767C372.623 102.767 368.67 96.915 368.512 88.6346L365.976 44.6848V44.6902Z" fill="#076F3A"/>
<path d="M3.99655 80.6536C11.7934 71.0939 26.2366 52.5133 29.159 48.3051C26.4438 48.022 11.0028 49.1598 7.14254 49.1598C2.7098 49.1598 1.2813 48.0165 1.13954 42.1642L0.997775 31.7443C0.997775 27.6068 3.42951 25.6088 7.57328 25.6088H53.6018C62.32 25.6088 64.61 28.6085 64.8935 35.174C64.9862 40.2098 63.2579 45.1149 60.0083 48.9693C52.0206 58.4582 38.1826 74.0772 33.7281 80.4196C40.5925 80.4196 52.3096 79.5648 54.1688 79.4179C58.0291 78.9878 63.1761 79.9895 63.3178 88.4114L63.4596 95.5486C63.6013 104.967 58.6016 104.112 52.7403 104.112H9.29076C3.57127 104.118 0 101.831 0 95.1239V91.8738C0 87.7854 1.41215 83.8221 3.99655 80.6536Z" fill="#076F3A"/>
<path d="M97.9238 57.7232C102.656 57.8539 107.88 58.9536 111.244 59.9063C111.664 60.0261 112.078 59.7103 112.078 59.2694V56.2969C112.078 51.0162 108.507 48.1635 100.497 48.1635C93.6874 48.1635 86.9429 49.5953 83.4207 50.4772C81.8558 50.8692 80.231 50.1288 79.5113 48.6861C77.3904 44.4234 74.1463 35.6531 79.4841 30.3179C83.3443 26.752 91.7791 24.1824 104.358 24.1824C126.658 24.1824 139.956 36.1702 140.954 53.1557C141.526 64.0057 140.381 81.7043 140.381 89.5546C140.381 102.925 140.506 105.544 127.661 105.544C125.622 105.544 123.555 105.457 121.56 105.005C120.257 104.711 118.943 104.248 117.89 103.393C117.034 102.697 116.429 101.766 116.069 100.726C115.655 99.539 115.529 98.2651 115.469 97.0184C115.399 95.4397 115.442 93.8609 115.469 92.2821C115.48 91.8139 115.486 91.3512 115.491 90.883C115.502 90.1154 115.753 88.6618 114.543 88.6618C113.845 88.6618 113.539 89.5546 113.523 89.6853C112.863 95.1293 111.642 105.544 93.2021 105.544C79.1951 105.544 69.7571 95.9786 68.9011 82.5645C67.7561 65.7206 81.1961 56.874 97.9184 57.7287L97.9238 57.7232ZM101.495 85.8418C107.138 85.8418 110.273 81.5791 111.582 77.6866C112.029 76.3528 112.214 74.9482 112.214 73.5382V71.2408C112.214 70.838 111.942 70.4896 111.544 70.4025C110.23 70.103 107.863 69.7111 105.492 69.7111C98.7744 69.7111 93.1967 72.8523 93.4856 78.5631C93.4856 82.8476 96.7734 85.8418 101.49 85.8418H101.495Z" fill="#076F3A"/>
<path d="M196.415 42.0226C196.823 32.6371 196.131 23.6108 196.131 17.9C195.989 7.33856 195.7 2.771 208.851 2.771C224.003 2.771 227.007 11.476 226.577 19.3264C226.146 26.1804 225.432 74.7087 225.721 89.5547C225.721 94.5523 228.867 102.114 222.575 104.259C220.432 104.972 211.823 105.544 207.963 105.544C199.969 105.544 200.902 95.7935 200.357 92.5598C200.378 91.8847 200.084 91.5363 199.779 91.5363C198.901 91.5363 198.737 91.9228 198.601 92.5489C197.903 95.8425 194.043 105.544 178.831 105.544C163.619 105.544 148.81 93.126 148.096 64.1473C147.524 39.1699 156.814 24.1825 173.973 24.1825C188.269 24.1825 193.667 35.5551 195.417 42.0226C195.531 42.4527 196.398 42.4636 196.42 42.0226H196.415ZM197.401 65.53C197.281 56.2153 198.961 48.2071 188.552 47.875C183.978 47.728 178.547 51.4408 178.547 65.8621C178.547 77.4253 183.405 83.1307 188.552 83.1307C193.127 83.1307 197.57 78.5577 197.401 65.53Z" fill="#076F3A"/>
<path d="M240.753 28.7173H249.193C249.973 28.7173 250.224 29.142 250.224 29.8225V30.7262C250.224 31.5755 249.82 31.7007 249.04 31.7007H242.961L242.934 36.5677C244.09 36.5949 247.181 36.5677 248.484 36.5677C249.215 36.5677 249.515 36.7691 249.515 37.4442V38.3969C249.515 39.0502 249.286 39.2734 248.686 39.2244C247.955 39.1482 244.515 39.1754 242.907 39.1971C242.907 41.6034 243.005 43.5088 243.005 44.1131C243.005 45.0658 242.956 45.7681 241.849 45.7681H240.693C239.641 45.7681 239.51 45.1421 239.51 44.1621C239.51 43.8845 239.537 43.3618 239.537 42.7086C239.564 39.0992 239.537 31.2706 239.537 30.748C239.537 29.5176 239.313 28.7173 240.742 28.7173H240.753Z" fill="#076F3A"/>
<path d="M255.125 39.4258L255.076 39.502C255.103 41.4836 256.232 43.3891 258.745 43.3891C260.73 43.3891 262.262 42.3329 262.513 42.1859C262.513 42.1859 263.015 42.5344 263.216 43.2149C263.418 43.9934 263.189 44.5704 262.611 44.9461C262.131 45.2455 260.627 46.024 258.544 46.024C253.822 46.024 251.886 42.8882 251.886 38.7997C251.886 34.7112 254.22 31.7279 258.342 31.7279C261.957 31.7279 263.92 34.1124 263.92 36.8181C263.92 39.0229 263.293 39.4258 262.36 39.4258H255.125ZM260.725 37.5204C260.725 37.5204 260.801 37.1937 260.801 36.8181C260.801 35.2121 260 34.3084 258.266 34.3084C255.828 34.3084 255.152 36.339 255.152 37.5204H260.73H260.725Z" fill="#076F3A"/>
<path d="M269.018 39.4258L268.969 39.502C268.996 41.4836 270.125 43.3891 272.638 43.3891C274.623 43.3891 276.155 42.3329 276.406 42.1859C276.406 42.1859 276.907 42.5344 277.109 43.2149C277.311 43.9934 277.082 44.5704 276.504 44.9461C276.024 45.2455 274.519 46.024 272.436 46.024C267.715 46.024 265.779 42.8882 265.779 38.7997C265.779 34.7112 268.113 31.7279 272.235 31.7279C275.849 31.7279 277.812 34.1124 277.812 36.8181C277.812 39.0229 277.185 39.4258 276.253 39.4258H269.018ZM274.617 37.5204C274.617 37.5204 274.694 37.1937 274.694 36.8181C274.694 35.2121 273.892 34.3084 272.158 34.3084C269.721 34.3084 269.045 36.339 269.045 37.5204H274.623H274.617Z" fill="#076F3A"/>
<path d="M292.25 29.8443C292.201 30.7208 292.021 40.6289 292.174 44.0369C292.174 44.663 292.523 45.5939 291.797 45.8661C291.547 45.9423 290.996 46.0186 290.565 46.0186C289.208 46.0186 288.908 44.9624 289.06 43.6885H288.908C288.908 43.6885 288.03 46.0186 284.938 46.0186C282.049 46.0186 279.715 43.3836 279.666 38.5167C279.639 34.3792 281.776 31.7225 284.688 31.7225C287.174 31.7225 288.455 33.6769 288.657 34.5044H288.831C288.804 32.6207 288.733 30.4431 288.733 29.7408C288.684 28.5105 288.706 27.9606 290.189 27.9606C291.923 27.9606 292.299 28.8861 292.25 29.8443ZM288.831 39.6218V37.2917C288.679 36.7909 287.752 34.4826 285.816 34.4826C284.437 34.4826 283.128 35.5333 283.128 38.5983C283.128 41.6633 284.36 43.3619 285.991 43.3619C287.496 43.3619 288.831 42.0063 288.831 39.6272V39.6218Z" fill="#076F3A"/>
<path d="M253.375 8.35115C254.285 8.35115 254.907 7.75231 254.907 6.99558C254.907 6.23886 254.285 5.64001 253.375 5.64001C252.464 5.64001 251.843 6.25519 251.843 6.99558C251.843 7.73598 252.443 8.35115 253.375 8.35115Z" fill="#076F3A"/>
<path d="M253.375 9.58698C250.556 9.58698 248.452 11.7374 248.452 14.405C248.452 16.4138 249.891 17.8674 252.644 17.8674C254.416 17.8674 255.463 17.2086 256.019 16.4138C255.867 18.684 254.242 18.9616 251.739 18.9616H245.993C242.885 18.9616 241.62 18.1233 241.62 16.3757C241.62 15.7006 241.789 14.9766 242.1 14.1436C242.176 13.9422 242.072 13.719 241.865 13.6537L240.153 13.1147C239.979 13.0603 239.782 13.1365 239.701 13.3053C239.074 14.5683 238.806 15.9728 238.806 17.1379C238.806 20.2247 240.584 22.3097 245.709 22.3097H251.434C255.959 22.3097 258.358 20.2628 258.358 15.3849C258.358 12.2001 256.652 9.59242 253.391 9.59242L253.375 9.58698ZM252.955 15.1399C251.603 15.1399 250.736 14.7643 250.736 14.1436C250.736 13.5884 251.625 12.7717 253.108 12.7717C254.46 12.7717 255.256 13.4468 255.665 14.1654C255.779 14.3614 255.692 14.6118 255.48 14.6989C254.885 14.9548 254.024 15.1399 252.95 15.1399H252.955Z" fill="#076F3A"/>
<path d="M278.646 17.2849C278.646 16.3322 279.731 15.5537 281.351 15.5537C282.158 15.5537 282.927 15.8095 283.51 16.0926C283.908 16.2886 284.382 16.1525 284.606 15.7714L285.184 14.7752C285.451 14.3179 285.407 13.8987 285.135 13.6428C284.399 12.9568 283.085 12.2328 281.367 12.2328C278.085 12.2328 276.089 14.4812 276.089 16.7296C276.089 17.4754 276.269 18.0906 276.624 18.5914C276.733 18.7439 276.618 18.9562 276.427 18.9562H274.955C273.292 18.9562 272.714 18.6568 272.714 17.0236V8.72137C272.714 8.26407 272.344 7.88843 271.88 7.88843H270.593C270.135 7.88843 269.759 8.25862 269.759 8.72137V17.1215C269.759 18.3083 269.241 18.7602 268.189 18.9017C267.785 18.9562 267.404 18.7003 267.289 18.3083C266.837 16.7241 265.675 12.6574 265.19 10.9534C265.065 10.5234 264.623 10.2675 264.187 10.3764L262.9 10.703C262.442 10.8173 262.175 11.291 262.306 11.7428L264.121 17.8892C264.28 18.4227 263.882 18.9562 263.325 18.9562H260.588C260.13 18.9562 259.754 19.3264 259.754 19.7891V21.4713C259.754 21.9286 260.125 22.3043 260.588 22.3043H267.011C268.462 22.3043 269.53 21.896 270.223 21.1719C270.561 20.8181 271.111 20.8126 271.444 21.1719C272.158 21.9341 273.276 22.3043 274.775 22.3043H285.544C286.002 22.3043 286.378 21.9341 286.378 21.4713V19.7891C286.378 19.3318 286.007 18.9562 285.544 18.9562H281.498C279.988 18.9562 278.636 18.439 278.636 17.2849H278.646Z" fill="#076F3A"/>
<path d="M290.576 9.02625H289.371C288.889 9.02625 288.499 9.41623 288.499 9.89729V21.4278C288.499 21.9089 288.889 22.2988 289.371 22.2988H290.576C291.058 22.2988 291.448 21.9089 291.448 21.4278V9.89729C291.448 9.41623 291.058 9.02625 290.576 9.02625Z" fill="#076F3A"/>
<path d="M290.407 6.47842C289.633 6.47842 289.23 6.32055 289.23 6.05923C289.23 5.75981 289.72 5.56382 290.184 5.56382C290.603 5.56382 291.154 6.02112 291.252 5.91769C291.4 5.75981 291.683 5.1283 291.683 5.1283C291.792 4.9432 291.759 4.70911 291.607 4.56212C291.263 4.22459 290.767 4.01227 290.205 4.01227C288.919 4.01227 288.21 4.92687 288.21 5.82514C288.21 6.12456 288.275 6.3641 288.39 6.56009C288.39 6.56009 287.774 6.57097 287.746 6.58186C287.719 6.59275 287.746 7.47469 287.746 7.47469C287.746 7.73056 287.954 7.93199 288.205 7.93199H291.678C291.934 7.93199 292.136 7.72511 292.136 7.47469V6.94117C292.136 6.6853 291.928 6.48387 291.678 6.48387H290.407V6.47842Z" fill="#076F3A"/>
<path d="M288.39 6.56009C288.39 6.56009 287.812 6.5492 287.746 6.58187C287.719 6.5982 287.746 7.47469 287.746 7.47469" fill="#076F3A"/>
<path d="M288.39 6.56007C288.39 6.56007 287.806 6.53829 287.746 6.58185C287.681 6.63084 287.746 7.47467 287.746 7.47467" fill="#076F3A"/>
<path d="M440.777 63.1129C440.308 61.1857 438.656 59.7812 436.677 59.6233C430.292 59.117 413.221 58.431 412.43 58.4038C410.298 58.3058 408.259 59.7648 407.747 62.0622C407.643 62.525 407.643 63.004 407.692 63.4722C408.33 69.3355 420.112 97.8297 409.159 108.772C403.363 114.559 390.942 112.888 380.867 112.686C378.544 112.621 376.527 114.352 376.221 116.672L373.141 140.484C372.803 143.086 374.329 145.585 376.81 146.451C381.646 148.138 412.555 158.613 436.279 133.036C454.271 113.639 441.998 68.1596 440.771 63.1075L440.777 63.1129Z" fill="#076F3A"/>
<path d="M425.532 50.0581C435.619 50.0581 442.091 42.3275 442.091 32.256C442.091 22.1845 433.678 16.1688 423.591 16.1688C413.504 16.1688 405.506 22.1845 405.506 32.256C405.506 42.3275 415.445 50.0581 425.532 50.0581Z" fill="#076F3A"/>
<path d="M335.034 70.6638C342.395 69.9016 349.979 66.8802 356.227 60.7937C355.862 37.9886 340.552 19.8218 333.469 17.0399C331.354 16.207 329.533 15.4883 304.997 27.4653C303.416 28.2438 302.369 29.8008 302.244 31.5592C302.119 33.3122 302.936 34.9998 304.392 35.9961C304.458 36.0342 310.275 40.0029 315.542 45.5123C321.611 51.8492 324.43 57.5545 323.464 61.5559C323.388 61.8717 323.257 66.608 312.843 66.902C316.927 68.4318 321.098 69.7274 325.455 70.4188C328.508 70.9034 331.752 71.0122 335.029 70.6529L335.034 70.6638Z" fill="#076F3A"/>
<path d="M356.233 60.7883C356.233 60.7883 356.233 60.7883 356.228 60.7938C349.979 66.8748 342.395 69.9017 335.034 70.6638C331.758 71.0231 328.513 70.9142 325.46 70.4297C321.109 69.7329 316.933 68.4372 312.849 66.9129C312.347 66.7223 311.846 66.5372 311.344 66.3412C310.603 66.0527 309.877 65.7533 309.169 65.4375C305.586 63.7771 302.201 61.6702 298.706 59.7812C298.297 59.5634 297.888 59.3456 297.479 59.1279C296.219 58.4637 294.938 57.8431 293.619 57.2932C287.894 54.8924 281.874 53.1884 275.653 52.3446C274.977 52.252 274.317 52.1758 273.652 52.0942C266.259 51.3265 259.078 51.6042 251.712 53.8308C248.163 54.8978 244.559 56.4004 240.889 58.4691C240.578 58.6379 240.268 58.823 239.957 59.0081C238.621 59.7812 237.285 60.5978 235.982 61.4906C231.195 64.6754 222.913 71.9976 217.313 79.1838C214.075 83.3376 211.725 87.4478 211.447 90.6979C211.338 91.9337 212.493 92.9028 213.693 92.5761C214.696 92.3039 215.852 92.0045 216.61 91.8521C223.305 90.5074 229.537 92.5217 235.382 95.5595C239.908 97.9222 244.204 100.867 248.299 103.355C250.104 104.444 251.925 105.538 253.74 106.584C259.743 110.073 265.904 113.345 272.327 115.882C276.782 117.662 281.34 119.089 286.094 120.009C286.847 120.161 287.616 120.297 288.368 120.417C288.771 120.471 289.197 120.537 289.6 120.575C289.753 120.586 289.884 120.613 290.036 120.629C302.064 122.137 315.979 119.432 328.443 111.826C332.314 109.464 336.059 106.611 339.554 103.257C340.012 102.827 340.47 102.386 340.923 101.929L340.967 101.885C343.693 99.109 346.304 96.2128 348.109 92.8157C357.149 75.7867 356.233 61.9207 356.238 60.7883H356.233Z" fill="#50B848"/>
</g>
<defs>
<clipPath id="clip0_40_132">
<rect width="446" height="150" fill="white"/>
</clipPath>
</defs>
</svg>
