<svg width="612" height="293" viewBox="0 0 612 293" fill="none" xmlns="http://www.w3.org/2000/svg">
<path d="M611.975 38.4534C585.574 64.1755 553.526 76.9308 522.396 80.1372C508.525 81.6524 494.831 81.1943 481.948 79.1507C463.559 76.2261 445.912 70.7293 428.653 64.2812C426.535 63.4707 424.417 62.6956 422.299 61.8499C419.158 60.6519 416.123 59.3834 413.087 58.0092C397.946 50.9973 383.651 42.0827 368.863 34.1194C367.133 33.2033 365.404 32.2871 363.674 31.371C358.345 28.5521 352.909 25.9447 347.368 23.6191C323.156 13.4713 297.743 6.28317 271.449 2.68912C268.59 2.30153 265.801 1.94917 263.013 1.63205C231.777 -1.60964 201.423 -0.446858 170.293 8.99632C155.293 13.5065 140.045 19.8489 124.551 28.6226C123.245 29.3273 121.904 30.1378 120.598 30.9129C114.95 34.1899 109.303 37.643 103.797 41.4132C83.5732 54.8732 48.5605 85.8102 24.8775 116.148C11.1831 133.766 1.22988 151.137 0.0298537 164.844C-0.428982 170.059 4.47703 174.181 9.52421 172.772C13.7596 171.609 18.6656 170.341 21.8422 169.706C50.1488 163.998 76.4789 172.525 101.15 185.386C120.28 195.358 138.457 207.832 155.751 218.332C163.375 222.948 171.07 227.564 178.764 231.968C204.141 246.697 230.189 260.544 257.295 271.256C276.143 278.761 295.379 284.822 315.497 288.698C318.673 289.332 321.92 289.896 325.097 290.424C326.826 290.635 328.591 290.917 330.321 291.094C330.956 291.129 331.521 291.27 332.156 291.305C382.981 297.683 441.782 286.231 494.442 254.096C510.819 244.124 526.632 232.074 541.385 217.874C543.326 216.077 545.232 214.209 547.173 212.271L547.35 212.095C558.856 200.362 569.903 188.135 577.527 173.759C615.751 101.807 611.869 43.2102 611.904 38.4182L611.975 38.4534Z" fill="#50B848"/>
</svg>
